<?xml version="1.0" encoding="UTF-8"?>
<svg viewBox="20 30 360 385" width="360" height="385" xmlns="http://www.w3.org/2000/svg">
<defs>
<radialGradient id="gb" cx="38%" cy="30%"><stop offset="0%" stop-color="#d6eaf8"/><stop offset="60%" stop-color="#5dade2"/><stop offset="100%" stop-color="#2471a3"/></radialGradient>
<radialGradient id="gr" cx="38%" cy="30%"><stop offset="0%" stop-color="#fadbd8"/><stop offset="50%" stop-color="#e74c3c"/><stop offset="100%" stop-color="#b03a2e"/></radialGradient>
</defs>
<line x1="200" y1="210" x2="200" y2="70" stroke="#bdc3c7" stroke-width="1" stroke-dasharray="5,4"/>
<line x1="200" y1="210" x2="321.2" y2="280" stroke="#bdc3c7" stroke-width="1" stroke-dasharray="5,4"/>
<line x1="200" y1="210" x2="78.8" y2="280" stroke="#bdc3c7" stroke-width="1" stroke-dasharray="5,4"/>
<polygon points="200,70 321.2,140 321.2,280 200,350 78.8,280 78.8,140" fill="none" stroke="#2c3e50" stroke-width="2" stroke-linejoin="round"/>
<line x1="200" y1="210" x2="321.2" y2="140" stroke="#2c3e50" stroke-width="1.5"/>
<line x1="200" y1="210" x2="200" y2="350" stroke="#2c3e50" stroke-width="1.5"/>
<line x1="200" y1="210" x2="78.8" y2="140" stroke="#2c3e50" stroke-width="1.5"/>
<circle cx="200" cy="140" r="35" fill="url(#gb)" opacity="0.4"/>
<circle cx="260.6" cy="175" r="35" fill="url(#gb)" opacity="0.4"/>
<circle cx="139.4" cy="175" r="35" fill="url(#gb)" opacity="0.4"/>
<circle cx="200" cy="210" r="35" fill="url(#gb)" opacity="0.3"/>
<circle cx="200" cy="210" r="35" fill="url(#gb)" opacity="0.4"/>
<circle cx="260.6" cy="245" r="35" fill="url(#gb)" opacity="0.55"/>
<circle cx="139.4" cy="245" r="35" fill="url(#gb)" opacity="0.55"/>
<circle cx="200" cy="280" r="35" fill="url(#gb)" opacity="0.6"/>
<circle cx="200" cy="210" r="25.6" fill="url(#gr)" opacity="0.85" stroke="#c0392b" stroke-width="1"/>
<circle cx="100" cy="390" r="7" fill="url(#gb)" opacity="0.6"/>
<text x="113" y="395" font-size="12" fill="#2471a3" font-family="Georgia,serif" font-style="italic">r = 1</text>
<circle cx="240" cy="390" r="5" fill="url(#gr)" opacity="0.8"/>
<text x="251" y="395" font-size="12" fill="#c0392b" font-family="Georgia,serif" font-style="italic">r = &#x221A;3 &#x2212; 1</text>
</svg>
